<svg height="512" viewBox="0 0 64 64" width="512" xmlns="http://www.w3.org/2000/svg"><g id="Checklist-2" data-name="Checklist"><path fill="#fff" d="m14 17h22v-1a3 3 0 0 0 -3-3h-3a1 1 0 0 1 -1-1v-5a3 3 0 0 0 -3-3h-2a3 3 0 0 0 -3 3v5a1 1 0 0 1 -1 1h-3a3 3 0 0 0 -3 3zm11-11a3 3 0 1 1 -3 3 3 3 0 0 1 3-3z"/><path fill="#fff" d="m12 21v-3h-2v30h5a3 3 0 0 1 3 3v5h22v-2h-8a2 2 0 0 1 -2-2v-21a1.006 1.006 0 0 1 .168-.555l4-6a1 1 0 0 1 .832-.445h5v-6h-2v3a1 1 0 0 1 -1 1h-24a1 1 0 0 1 -1-1zm0 17h2v2h-2zm14 6h-14v-2h14zm0-4h-10v-2h10zm-2-13h4v2h-4zm0 3h4v2h-4zm-1.293-1.293-4 4a1 1 0 0 1 -1.414 0l-2-2 1.414-1.414 1.293 1.293 3.293-3.293zm-2.707-2.707v2h-6v6h6v-2h2v2a2 2 0 0 1 -2 2h-6a2 2 0 0 1 -2-2v-6a2 2 0 0 1 2-2z"/><path fill="#fff" d="m14 19h22v1h-22z"/><circle fill="#fff" cx="25" cy="9" r="1"/><path fill="#fff" d="m32.868 30h24.264l-2.667-4h-18.93z"/><path fill="#fff" d="m44 54h-2v2a2 2 0 0 1 -2 2h-30a2 2 0 0 1 -2-2v-38a2 2 0 0 1 2-2h2a4.95 4.95 0 0 1 .424-2h-3.424a3 3 0 0 0 -3 3v40a3 3 0 0 0 3 3h32a3 3 0 0 0 3-3z"/><path fill="#fff" d="m10 56h4.586l-4.586-4.586z"/><path fill="#fff" d="m58 37h-9v4a1 1 0 0 1 -1.555.832l-2.445-1.632-2.445 1.63a1 1 0 0 1 -1.555-.83v-4h-9v15h26z"/><path fill="#fff" d="m32 32h9v3h-9z"/><path fill="#fff" d="m41 14h-3.424a4.95 4.95 0 0 1 .424 2h2a2 2 0 0 1 2 2v6h2v-7a3 3 0 0 0 -3-3z"/><path fill="#fff" d="m16 51a1 1 0 0 0 -1-1h-3.586l4.586 4.586z"/><path fill="#fff" d="m44.445 38.168a1 1 0 0 1 1.11 0l1.445.963v-7.131h-4v7.131z"/><path fill="#fff" d="m49 32h9v3h-9z"/></g></svg>